<svg width="142" height="20" viewBox="0 0 142 20" fill="none" xmlns="http://www.w3.org/2000/svg">
<path d="M31.2759 5.71973H33.8975C35.1289 5.71973 36.0197 5.90381 36.5698 6.27197C37.12 6.64014 37.395 7.22201 37.395 8.01758C37.395 8.56771 37.2406 9.02262 36.9316 9.38232C36.627 9.73779 36.1805 9.96842 35.5923 10.0742V10.1377C37.0015 10.3789 37.7061 11.1195 37.7061 12.3594C37.7061 13.1888 37.4246 13.8363 36.8618 14.3018C36.3032 14.7673 35.5203 15 34.5132 15H31.2759V5.71973ZM32.355 9.69336H34.1323C34.894 9.69336 35.4421 9.57487 35.7764 9.33789C36.1107 9.09668 36.2778 8.69255 36.2778 8.12549C36.2778 7.60498 36.0916 7.23047 35.7192 7.00195C35.3468 6.76921 34.7544 6.65283 33.9419 6.65283H32.355V9.69336ZM32.355 10.6074V14.0796H34.291C35.04 14.0796 35.6029 13.9357 35.9795 13.6479C36.3604 13.356 36.5508 12.901 36.5508 12.2832C36.5508 11.7077 36.3561 11.2845 35.9668 11.0137C35.5817 10.7428 34.9935 10.6074 34.2021 10.6074H32.355ZM42.3271 15.127C41.32 15.127 40.5392 14.818 39.9849 14.2002C39.4347 13.5781 39.1597 12.7 39.1597 11.5659C39.1597 10.4022 39.439 9.50293 39.9976 8.86816C40.5604 8.2334 41.3602 7.91602 42.397 7.91602C42.7313 7.91602 43.0656 7.95199 43.3999 8.02393C43.7342 8.09587 43.9966 8.1805 44.187 8.27783L43.8633 9.17285C43.6305 9.07975 43.3766 9.00358 43.1016 8.94434C42.8265 8.88086 42.5832 8.84912 42.3716 8.84912C40.9582 8.84912 40.2515 9.75049 40.2515 11.5532C40.2515 12.408 40.4229 13.064 40.7656 13.521C41.1126 13.978 41.6247 14.2065 42.3018 14.2065C42.8815 14.2065 43.4761 14.0817 44.0854 13.832V14.7651C43.62 15.0063 43.0339 15.127 42.3271 15.127ZM48.6812 15.127C47.6528 15.127 46.8403 14.8138 46.2437 14.1875C45.6512 13.5612 45.355 12.6916 45.355 11.5786C45.355 10.4572 45.63 9.56641 46.1802 8.90625C46.7345 8.24609 47.4772 7.91602 48.4082 7.91602C49.2799 7.91602 49.9697 8.20378 50.4775 8.7793C50.9854 9.35059 51.2393 10.106 51.2393 11.0454V11.7119H46.4468C46.4679 12.5286 46.6732 13.1486 47.0625 13.5718C47.4561 13.995 48.0083 14.2065 48.7192 14.2065C49.4683 14.2065 50.2088 14.05 50.9409 13.7368V14.6763C50.5685 14.8371 50.2152 14.9513 49.8809 15.019C49.5508 15.091 49.1509 15.127 48.6812 15.127ZM48.3955 8.79834C47.8369 8.79834 47.3905 8.98031 47.0562 9.34424C46.7261 9.70817 46.5314 10.2118 46.4722 10.855H50.1094C50.1094 10.1906 49.9613 9.68278 49.665 9.33154C49.3688 8.97607 48.9456 8.79834 48.3955 8.79834Z" fill="#4A4A4A"/>
<rect x="0.5" y="0.5" width="19" height="19" rx="1.5" stroke="#9ABBCE"/>
</svg>
